<svg id="Layer_1" data-name="Layer 1" xmlns="http://www.w3.org/2000/svg" viewBox="0 0 728.374 378.8063"><defs><style>.cls-1{fill:#427abd;}.cls-2{fill:#58595b;}</style></defs><title>logo</title><path class="cls-1" d="M45.76,305.9733a252.137,252.137,0,0,1-32.729-2.2649l1.7967-14.7052a209.3979,209.3979,0,0,0,33.4054,2.917c14.8353,0,27.2609-3.2828,27.2609-10.8159,0-15.6726-62.8678-8.5038-62.8678-35.4785,0-14.58,19.6481-24.6675,56.06-24.6675,8.5428,0,18.4351.61,27.4251,1.4569l-1.5739,13.8516A179.4494,179.4494,0,0,0,67.34,234.0814c-16.86,0-26.469,4.1316-26.469,9.9655,0,14.6987,64.2678,9.2355,64.2678,34.872,0,15.432-22.0643,27.0544-59.3785,27.0544" transform="translate(-12.626 -7.4365)"/><path class="cls-1" d="M269.6473,247.2034c0-16.0369-20.4579-25.3959-57.77-25.3959-14.8353,0-28.3226.1219-40.6864.4878v82.0184h29.2218V275.3943c3.5966.2423,7.1932.2423,9.8891.2423,36.8654,0,59.346-12.515,59.346-28.4332m-30.3453.9723c0,8.8713-12.3655,14.2191-30.347,14.341-2.6991,0-5.621-.1219-8.5428-.3675V234.81c3.3722-.12,6.7445-.12,10.3395-.12,19.7815,0,28.55,5.221,28.55,13.4857" transform="translate(-12.626 -7.4365)"/><path class="cls-1" d="M567.0112,305.4069c-53.0486,0-70.1327-19.0758-70.1327-39.4881,0-26.0073,25.1748-44.2294,75.9779-44.2294a228.4407,228.4407,0,0,1,32.1453,2.1853l-3.15,14.3377a195.2385,195.2385,0,0,0-30.5681-2.4308c-28.3259,0-42.2636,11.5476-42.2636,27.4609,0,17.8612,13.715,27.8235,44.288,27.8235a140.7587,140.7587,0,0,0,29.4446-3.4l3.3723,14.0971a210.11,210.11,0,0,1-39.1141,3.6438" transform="translate(-12.626 -7.4365)"/><polygon class="cls-1" points="647.225 296.877 647.225 214.858 727.972 214.858 727.972 228.105 676.447 228.105 676.447 248.272 727.022 248.272 727.022 261.154 676.447 261.154 676.447 283.391 727.972 283.391 727.972 296.877 647.225 296.877"/><polygon class="cls-2" points="24.893 171.974 24.893 164.127 10.724 164.127 10.724 171.974 4.284 171.974 4.284 153.9 10.724 153.9 10.724 161.131 24.893 161.131 24.893 153.9 31.331 153.9 31.331 171.974 24.893 171.974"/><path class="cls-2" d="M58.3716,177.5358c0,1.2065-1.78,2.1967-4.0129,2.1967-2.2276,0-4.0617-.99-4.0617-2.1967,0-1.2032,1.8341-2.195,4.0617-2.195,2.2324,0,4.0129.9918,4.0129,2.195" transform="translate(-12.626 -7.4365)"/><path class="cls-2" d="M99.5886,179.41l-8.0258-6.0779c-.8439-.6146-1.7837-1.3105-2.7251-1.98,5.0535-.4293,8.52-2.356,8.52-5.034,0-3.6958-4.7543-5.086-12.1362-5.086-3.8617,0-6.9851.0244-9.6094.1057V179.41H82.051v-7.4713H82.3l9.3119,7.4713h7.977m-8.9672-12.7459c0,1.6878-2.3788,2.7593-6.24,2.7593-.9935,0-1.8812-.0276-2.33-.0537v-5.2225c.6439-.0537,1.5853-.08,2.5284-.08,4.06,0,6.0421.8585,6.0421,2.5966" transform="translate(-12.626 -7.4365)"/><path class="cls-2" d="M115.5868,177.5358c0,1.2065-1.78,2.1967-4.0129,2.1967-2.2276,0-4.0617-.99-4.0617-2.1967,0-1.2032,1.8341-2.195,4.0617-2.195,2.2324,0,4.0129.9918,4.0129,2.195" transform="translate(-12.626 -7.4365)"/><path class="cls-2" d="M182.9431,179.4105l-2.3772-8.6224c-.4975-1.7122-.7951-3.05-1.0406-4.3121h-.0992a24.9144,24.9144,0,0,1-1.8325,3.8584l-5.3006,9.0761h-6.3917l-5.1007-8.38a19.1975,19.1975,0,0,1-2.1316-4.5543h-.0976a36.7871,36.7871,0,0,1-.943,4.6064l-1.8813,8.3281h-6.538l5.1494-18.0742h7.53l5.5982,9.2924a18.8536,18.8536,0,0,1,1.8325,3.8015h.0992a17.6476,17.6476,0,0,1,1.8829-3.7495l5.7461-9.3444h7.481l5.2015,18.0742h-6.7868" transform="translate(-12.626 -7.4365)"/><path class="cls-2" d="M254.6543,179.4109l-11.9378-18.0742h-7.2827l-11.6907,18.0742h6.4892l2.3268-3.6958h12.6337l2.3284,3.6958h7.1331m-11.146-6.4535h-9.3151l3.0243-4.6063a23.0544,23.0544,0,0,0,1.5853-3.0227h.0488a15.4875,15.4875,0,0,0,1.5349,2.891Z" transform="translate(-12.626 -7.4365)"/><path class="cls-2" d="M304.7356,179.6526c-11.6923,0-15.4564-4.2047-15.4564-8.7054,0-5.7283,5.5478-9.746,16.7442-9.746a50.5429,50.5429,0,0,1,7.0843.4829l-.6943,3.1593a42.9716,42.9716,0,0,0-6.7364-.5366c-6.2421,0-9.3135,2.5463-9.3135,6.0551,0,3.9332,3.0227,6.13,9.7574,6.13a30.9631,30.9631,0,0,0,6.4908-.748l.7414,3.1024a45.9926,45.9926,0,0,1-8.6176.8064" transform="translate(-12.626 -7.4365)"/><path class="cls-2" d="M385.4412,179.4105l-2.3788-8.6224c-.4959-1.7122-.7951-3.05-1.039-4.3121h-.1008a25.0923,25.0923,0,0,1-1.8341,3.8584l-5.3087,9.0761h-6.39l-5.1022-8.38a19.3106,19.3106,0,0,1-2.1284-4.5543h-.1008a36.4946,36.4946,0,0,1-.9414,4.6064l-1.8813,8.3281h-6.54l5.151-18.0742h7.5282l5.6,9.2924a18.9337,18.9337,0,0,1,1.8308,3.8015h.1008a17.7933,17.7933,0,0,1,1.8812-3.7495l5.7576-9.3444h7.4778l5.2015,18.0742h-6.7835" transform="translate(-12.626 -7.4365)"/><rect class="cls-2" x="416.0326" y="153.8996" width="6.4388" height="18.0742"/><polygon class="cls-2" points="467.055 171.974 467.055 153.9 473.494 153.9 473.494 168.924 484.341 168.924 484.341 171.974 467.055 171.974"/><polygon class="cls-2" points="576.382 171.974 576.382 153.9 582.821 153.9 582.821 168.924 593.668 168.924 593.668 171.974 576.382 171.974"/><path class="cls-2" d="M675.69,179.4109l-11.9411-18.0742h-7.2827l-11.6907,18.0742h6.4893l2.33-3.6958h12.6288l2.33,3.6958H675.69m-11.1508-6.4535h-9.3071l3.0178-4.6063a22.6486,22.6486,0,0,0,1.5837-3.0227h.0536a15.1138,15.1138,0,0,0,1.5349,2.891Z" transform="translate(-12.626 -7.4365)"/><path class="cls-2" d="M732.6376,179.4105l-9.8079-9.1314a39.1343,39.1343,0,0,1-3.6161-3.8828,64.3381,64.3381,0,0,1,.2943,6.5608v6.4534H713.269V161.3363h8.37l9.3136,8.6225c1.5333,1.3934,2.8714,2.891,4.112,4.2568a65.9732,65.9732,0,0,1-.35-7.2551v-5.6242h6.2453v18.0742h-8.3232" transform="translate(-12.626 -7.4365)"/><path class="cls-2" d="M49.4614,386.2428c-25.3292,0-33.4867-9.107-33.4867-18.8579,0-12.4142,12.0191-21.1164,36.2752-21.1164a109.6332,109.6332,0,0,1,15.3491,1.0422l-1.5024,6.8469A93.0617,93.0617,0,0,0,51.5,353c-13.5231,0-20.1766,5.512-20.1766,13.1117,0,8.5265,6.5461,13.2857,21.1424,13.2857a67.2679,67.2679,0,0,0,14.06-1.6243l1.61,6.73a100.2714,100.2714,0,0,1-18.6742,1.74" transform="translate(-12.626 -7.4365)"/><polygon class="cls-2" points="145.724 378.286 145.724 339.121 185.114 339.121 185.114 345.446 159.678 345.446 159.678 355.082 183.827 355.082 183.827 361.231 159.678 361.231 159.678 371.844 185.114 371.844 185.114 378.286 145.724 378.286"/><path class="cls-2" d="M332.5737,385.7222l-21.25-19.7847a86.2137,86.2137,0,0,1-7.8371-8.4111,137.2641,137.2641,0,0,1,.6455,14.2141v13.9816H290.6076V346.5576h18.1409l20.1766,18.6839c3.3283,3.0145,6.2242,6.2665,8.91,9.2225a142.0149,142.0149,0,0,1-.7512-15.7214v-12.185h13.5231v39.1645H332.5737" transform="translate(-12.626 -7.4365)"/><polygon class="cls-2" points="454.254 345.563 454.254 378.286 440.305 378.286 440.305 345.563 421.522 345.563 421.522 339.121 473.04 339.121 473.04 345.563 454.254 345.563"/><path class="cls-2" d="M621.8649,385.7225l-17.3864-13.1719c-1.8292-1.3333-3.8666-2.8405-5.9055-4.2942,10.9525-.9284,18.4628-5.1023,18.4628-10.9037,0-8.0062-10.3037-11.0256-26.3-11.0256-8.37,0-15.1312.0569-20.8172.2309v39.1645h13.9507V369.536h.54l20.1766,16.1864h17.2791M602.44,358.1055c0,3.6552-5.1543,5.9754-13.5248,5.9754-2.1462,0-4.0779-.0569-5.0454-.1154V352.65c1.3951-.1171,3.4357-.174,5.4763-.174,8.8013,0,13.0939,1.8617,13.0939,5.6291" transform="translate(-12.626 -7.4365)"/><polygon class="cls-2" points="688.983 378.286 688.983 339.121 728.374 339.121 728.374 345.446 702.937 345.446 702.937 355.082 727.086 355.082 727.086 361.231 702.937 361.231 702.937 371.844 728.374 371.844 728.374 378.286 688.983 378.286"/><path class="cls-1" d="M372.3021,251.432c5.177,6.7705,32.6656,42.1417,40.6832,52.8812h31.8932l-71.887-85.9695-71.8366,85.9695h28.95c8.7233-11.6793,42.197-52.8812,42.197-52.8812" transform="translate(-12.626 -7.4365)"/><path class="cls-2" d="M129.644,334.7751C897.615,197.1716,491.7978,24.9985,391.832,7.4365,472.55,27.6244,734.7246,217.2555,129.644,334.7751" transform="translate(-12.626 -7.4365)"/></svg>